<svg width="45" height="33" viewBox="0 0 45 33" fill="none" xmlns="http://www.w3.org/2000/svg">
<path d="M20.7035 16.8035L17.5915 19.9275C17.2715 20.2432 16.9025 20.401 16.4845 20.401C16.0668 20.401 15.7038 20.2472 15.3955 19.9395C15.0795 19.6235 14.9197 19.2472 14.916 18.8105C14.912 18.3738 15.0678 17.9975 15.3835 17.6815L21.0695 11.946C21.4152 11.606 21.8185 11.436 22.2795 11.436C22.7402 11.436 23.1405 11.606 23.4805 11.946L29.2165 17.6935C29.5322 18.0095 29.688 18.3775 29.684 18.7975C29.6803 19.2175 29.5222 19.5815 29.2095 19.8895C28.8888 20.2058 28.5125 20.3618 28.0805 20.3575C27.6485 20.3532 27.2785 20.1932 26.9705 19.8775L23.8465 16.8035V29.1535H35.8055C37.2628 29.1535 38.5168 28.6287 39.5675 27.579C40.6182 26.5293 41.1435 25.2733 41.1435 23.811C41.1435 22.343 40.6187 21.0855 39.569 20.0385C38.5193 18.9918 37.2633 18.4685 35.801 18.4685H32.5435V14.137C32.5435 11.2067 31.5485 8.68767 29.5585 6.58C27.5685 4.47233 25.1092 3.4185 22.1805 3.4185C19.2342 3.4185 16.7602 4.48717 14.7585 6.6245C12.7572 8.76183 11.7565 11.3098 11.7565 14.2685H10.699C8.662 14.2685 6.93733 14.9828 5.525 16.4115C4.11267 17.8398 3.4065 19.6055 3.4065 21.7085C3.4065 23.7448 4.12817 25.4948 5.5715 26.9585C7.01483 28.4218 8.75733 29.1535 10.799 29.1535H16C16.4807 29.1535 16.8847 29.318 17.212 29.647C17.5397 29.976 17.7035 30.3822 17.7035 30.8655C17.7035 31.3488 17.5397 31.752 17.212 32.075C16.8847 32.3983 16.4807 32.56 16 32.56H10.799C7.85 32.56 5.31283 31.5 3.1875 29.38C1.0625 27.26 0 24.7283 0 21.785C0 19.137 0.829 16.7915 2.487 14.7485C4.145 12.7055 6.29383 11.476 8.9335 11.06C9.63217 7.80266 11.2315 5.145 13.7315 3.087C16.2315 1.029 19.1138 0 22.3785 0C26.1748 0 29.3678 1.36233 31.9575 4.087C34.5475 6.81167 35.8743 10.086 35.938 13.91V15.11C38.362 15.115 40.4033 15.9465 42.062 17.6045C43.7207 19.2628 44.55 21.3397 44.55 23.835C44.55 26.222 43.6868 28.2728 41.9605 29.9875C40.2338 31.7025 38.1807 32.56 35.801 32.56H24.1215C23.2022 32.56 22.4027 32.2202 21.723 31.5405C21.0433 30.8608 20.7035 30.0652 20.7035 29.1535V16.8035Z" fill="white"/>
</svg>
