<svg width="33" height="41" viewBox="0 0 33 41" fill="none" xmlns="http://www.w3.org/2000/svg">
<path d="M9.9785 20.9165H22.6195C23.0648 20.9165 23.4382 20.7667 23.7395 20.467C24.0408 20.1677 24.1915 19.7907 24.1915 19.336C24.1915 18.8813 24.0425 18.5072 23.7445 18.2135C23.4468 17.9198 23.0718 17.773 22.6195 17.773H9.9785C9.53317 17.773 9.15983 17.9228 8.8585 18.2225C8.55717 18.5218 8.4065 18.8988 8.4065 19.3535C8.4065 19.8082 8.5555 20.1823 8.8535 20.476C9.15117 20.7697 9.52617 20.9165 9.9785 20.9165ZM9.9785 27.06H22.6195C23.0648 27.06 23.4382 26.9102 23.7395 26.6105C24.0408 26.3112 24.1915 25.9342 24.1915 25.4795C24.1915 25.0248 24.0425 24.6507 23.7445 24.357C23.4468 24.0633 23.0718 23.9165 22.6195 23.9165H9.9785C9.53317 23.9165 9.15983 24.0662 8.8585 24.3655C8.55717 24.6652 8.4065 25.0423 8.4065 25.497C8.4065 25.9517 8.5555 26.3258 8.8535 26.6195C9.15117 26.9132 9.52617 27.06 9.9785 27.06ZM9.9785 33.2035H16.6195C17.0648 33.2035 17.4382 33.0537 17.7395 32.754C18.0408 32.4547 18.1915 32.0777 18.1915 31.623C18.1915 31.1683 18.0425 30.7942 17.7445 30.5005C17.4468 30.2068 17.0718 30.06 16.6195 30.06H9.9785C9.53317 30.06 9.15983 30.2097 8.8585 30.509C8.55717 30.8087 8.4065 31.1858 8.4065 31.6405C8.4065 32.0952 8.5555 32.4693 8.8535 32.763C9.15117 33.0567 9.52617 33.2035 9.9785 33.2035ZM3.4065 40.61C2.4865 40.61 1.68883 40.2722 1.0135 39.5965C0.337833 38.9212 0 38.1235 0 37.2035V3.4185C0 2.49517 0.337833 1.69466 1.0135 1.017C1.68883 0.338998 2.4865 0 3.4065 0H20.051C20.5227 0 20.9722 0.0953319 21.3995 0.285999C21.8268 0.476665 22.1937 0.725164 22.5 1.0315L31.5785 10.11C31.8848 10.4163 32.1333 10.7832 32.324 11.2105C32.5147 11.6378 32.61 12.0873 32.61 12.559V37.2035C32.61 38.1235 32.271 38.9212 31.593 39.5965C30.9153 40.2722 30.1148 40.61 29.1915 40.61H3.4065ZM29.1915 12.4315H22.589C21.8823 12.4315 21.279 12.1813 20.779 11.681C20.2787 11.181 20.0285 10.5777 20.0285 9.871V3.4185H3.4065V37.2035H29.1915V12.4315Z" fill="white"/>
</svg>
