<svg width="37" height="37" viewBox="0 0 37 37" fill="none" xmlns="http://www.w3.org/2000/svg">
<path d="M18.3045 36.61C13.1798 36.61 8.848 35.807 5.309 34.201C1.76967 32.5953 0 30.632 0 28.311V8.311C0 6.02567 1.78633 4.06916 5.359 2.4415C8.93133 0.813831 13.2438 0 18.2965 0C23.3412 0 27.6545 0.813831 31.2365 2.4415C34.8188 4.06916 36.61 6.02567 36.61 8.311V28.311C36.61 30.632 34.8382 32.5953 31.2945 34.201C27.7512 35.807 23.4212 36.61 18.3045 36.61ZM18.299 11.899C21.1603 11.899 24.0927 11.4593 27.096 10.58C30.0993 9.70067 32.0463 8.711 32.937 7.611C32.013 6.54433 30.0447 5.563 27.032 4.667C24.0193 3.771 21.1063 3.323 18.293 3.323C15.3797 3.323 12.4417 3.75633 9.479 4.623C6.51633 5.48966 4.56433 6.48567 3.623 7.611C4.56433 8.77767 6.497 9.784 9.421 10.63C12.345 11.476 15.3043 11.899 18.299 11.899ZM18.249 22.587C19.641 22.587 21.0315 22.51 22.4205 22.356C23.8098 22.202 25.1428 21.973 26.4195 21.669C27.6962 21.365 28.9207 20.9923 30.093 20.551C31.265 20.11 32.3297 19.6188 33.287 19.0775V11.722C32.3043 12.2553 31.2277 12.7387 30.057 13.172C28.8863 13.6053 27.655 13.97 26.363 14.266C25.071 14.562 23.7457 14.7913 22.387 14.954C21.0283 15.1167 19.6475 15.198 18.2445 15.198C16.8578 15.198 15.469 15.1167 14.078 14.954C12.6873 14.7913 11.3512 14.56 10.0695 14.26C8.78783 13.96 7.57 13.5953 6.416 13.166C5.262 12.7367 4.231 12.2553 3.323 11.722V19.0775C4.223 19.6188 5.24367 20.108 6.385 20.545C7.52633 20.9823 8.73867 21.355 10.022 21.663C11.3053 21.971 12.6435 22.202 14.0365 22.356C15.4298 22.51 16.834 22.587 18.249 22.587ZM18.299 33.287C19.883 33.295 21.517 33.1593 23.201 32.88C24.8853 32.6007 26.4358 32.2297 27.8525 31.767C29.2692 31.3043 30.473 30.7877 31.464 30.217C32.4553 29.6463 33.063 29.061 33.287 28.461V22.474C32.3377 23.0153 31.2817 23.4983 30.119 23.923C28.9563 24.3477 27.7327 24.71 26.448 25.01C25.163 25.31 23.832 25.535 22.455 25.685C21.078 25.835 19.676 25.91 18.249 25.91C16.826 25.91 15.418 25.833 14.025 25.679C12.6317 25.525 11.2953 25.298 10.016 24.998C8.73667 24.698 7.52833 24.3357 6.391 23.911C5.25367 23.4863 4.231 23.0073 3.323 22.474V28.5105C3.51367 29.0775 4.09617 29.6507 5.0705 30.23C6.04517 30.8093 7.24717 31.324 8.6765 31.774C10.1058 32.224 11.6627 32.5887 13.347 32.868C15.031 33.1473 16.6817 33.287 18.299 33.287Z" fill="white"/>
</svg>
