<svg width="41" height="41" viewBox="0 0 41 41" fill="none" xmlns="http://www.w3.org/2000/svg">
<path d="M3.4065 28.323C2.47017 28.323 1.66833 27.9915 1.001 27.3285C0.333667 26.6655 0 25.8615 0 24.9165V3.4185C0 2.47017 0.333667 1.66333 1.001 0.997998C1.66833 0.332665 2.47017 0 3.4065 0H24.9045C25.8528 0 26.6597 0.332665 27.325 0.997998C27.9903 1.66333 28.323 2.47017 28.323 3.4185V7.6315C28.323 8.0955 28.1625 8.4875 27.8415 8.8075C27.5205 9.12716 27.1243 9.287 26.653 9.287C26.1817 9.287 25.7883 9.12716 25.473 8.8075C25.1577 8.4875 25 8.0955 25 7.6315V3.323H3.323V25H7.6315C8.09883 25 8.49367 25.1617 8.816 25.485C9.138 25.8083 9.299 26.2047 9.299 26.674C9.299 27.143 9.138 27.535 8.816 27.85C8.49367 28.1653 8.09883 28.323 7.6315 28.323H3.4065ZM15.7055 40.61C14.7605 40.61 13.9565 40.2785 13.2935 39.6155C12.6305 38.9525 12.299 38.1485 12.299 37.2035V15.7055C12.299 14.7572 12.6305 13.9503 13.2935 13.285C13.9565 12.6197 14.7605 12.287 15.7055 12.287H37.2035C38.1518 12.287 38.9587 12.6197 39.624 13.285C40.2893 13.9503 40.622 14.7572 40.622 15.7055V37.2035C40.622 38.1485 40.2893 38.9525 39.624 39.6155C38.9587 40.2785 38.1518 40.61 37.2035 40.61H15.7055ZM15.622 37.287H37.299V15.61H15.622V37.287Z" fill="white"/>
</svg>
