<svg width="40" height="25" viewBox="0 0 40 25" fill="none" xmlns="http://www.w3.org/2000/svg">
<path d="M1.6945 24.407C1.21117 24.407 0.808 24.2432 0.485 23.9155C0.161667 23.5882 0 23.1842 0 22.7035V1.7035C0 1.22283 0.1645 0.818834 0.4935 0.491501C0.8225 0.163834 1.22867 0 1.712 0C2.19533 0 2.59867 0.163834 2.922 0.491501C3.245 0.818834 3.4065 1.22283 3.4065 1.7035V22.7035C3.4065 23.1842 3.242 23.5882 2.913 23.9155C2.584 24.2432 2.17783 24.407 1.6945 24.407ZM34.0705 13.907H10.06C9.579 13.907 9.17483 13.7423 8.8475 13.413C8.52017 13.084 8.3565 12.6778 8.3565 12.1945C8.3565 11.7115 8.52017 11.3083 8.8475 10.985C9.17483 10.6617 9.579 10.5 10.06 10.5H34.0705L27.0795 3.447C26.7315 3.107 26.5595 2.70917 26.5635 2.2535C26.5675 1.79783 26.7395 1.4 27.0795 1.06C27.4192 0.720001 27.815 0.55 28.267 0.55C28.7187 0.55 29.1185 0.720001 29.4665 1.06L39.4045 10.998C39.5872 11.1807 39.7198 11.3735 39.8025 11.5765C39.8848 11.7795 39.926 11.9907 39.926 12.21C39.926 12.4297 39.8848 12.6387 39.8025 12.837C39.7198 13.0357 39.5872 13.2263 39.4045 13.409L29.4665 23.347C29.1185 23.687 28.716 23.8588 28.259 23.8625C27.802 23.8665 27.4062 23.7052 27.0715 23.3785C26.7288 23.0255 26.5575 22.6113 26.5575 22.136C26.5575 21.6607 26.7275 21.252 27.0675 20.91L34.0705 13.907Z" fill="white"/>
</svg>
