<svg width="37" height="35" viewBox="0 0 37 35" fill="none" xmlns="http://www.w3.org/2000/svg">
<path d="M1.683 34.3175C1.19967 34.3175 0.798333 34.1557 0.479 33.832C0.159667 33.5087 0 33.1075 0 32.6285V30.2305C0 29.7585 0.162667 29.3587 0.488 29.031C0.813 28.703 1.21517 28.539 1.6945 28.539C2.17383 28.539 2.573 28.7027 2.892 29.03C3.21133 29.3573 3.371 29.759 3.371 30.235V32.633C3.371 33.109 3.20817 33.5087 2.8825 33.832C2.55683 34.1557 2.157 34.3175 1.683 34.3175ZM9.933 34.3175C9.454 34.3175 9.05583 34.1555 8.7385 33.8315C8.42083 33.5075 8.262 33.1057 8.262 32.626V22.577C8.262 22.1007 8.42417 21.7017 8.7485 21.38C9.0725 21.0583 9.47467 20.8975 9.955 20.8975C10.435 20.8975 10.8347 21.0583 11.154 21.38C11.4733 21.7017 11.633 22.1007 11.633 22.577V32.626C11.633 33.1057 11.4702 33.5075 11.1445 33.8315C10.8188 34.1555 10.415 34.3175 9.933 34.3175ZM18.2055 34.3175C17.7308 34.3175 17.332 34.1557 17.009 33.832C16.6857 33.5087 16.524 33.1067 16.524 32.626V25.577C16.524 25.1053 16.689 24.7055 17.019 24.3775C17.3487 24.0495 17.7508 23.8855 18.2255 23.8855C18.6998 23.8855 19.0967 24.0495 19.416 24.3775C19.7353 24.7055 19.895 25.1053 19.895 25.577V32.638C19.895 33.1097 19.732 33.5075 19.406 33.8315C19.0803 34.1555 18.6802 34.3175 18.2055 34.3175ZM26.4685 34.3175C25.9852 34.3175 25.584 34.1557 25.265 33.832C24.9457 33.5087 24.786 33.1067 24.786 32.626V20.362C24.786 19.889 24.9485 19.4908 25.2735 19.1675C25.5988 18.8442 26.001 18.6825 26.48 18.6825C26.9593 18.6825 27.3587 18.8442 27.678 19.1675C27.9973 19.4908 28.157 19.889 28.157 20.362V32.638C28.157 33.1097 27.9942 33.5075 27.6685 33.8315C27.3428 34.1555 26.9428 34.3175 26.4685 34.3175ZM34.7175 34.3175C34.2428 34.3175 33.846 34.1557 33.527 33.832C33.2077 33.5087 33.048 33.1067 33.048 32.626V14.362C33.048 13.889 33.2105 13.4908 33.5355 13.1675C33.8605 12.8442 34.2603 12.6825 34.735 12.6825C35.2097 12.6825 35.607 12.8442 35.927 13.1675C36.247 13.4908 36.407 13.889 36.407 14.362V32.638C36.407 33.1097 36.244 33.5075 35.918 33.8315C35.5923 34.1555 35.1922 34.3175 34.7175 34.3175ZM22.1845 15.224C21.7495 15.224 21.3238 15.1358 20.9075 14.9595C20.4912 14.7835 20.1108 14.5317 19.7665 14.204L14.2035 8.641L2.959 19.8355C2.617 20.1755 2.20767 20.3375 1.731 20.3215C1.25467 20.3055 0.8515 20.1272 0.5215 19.7865C0.207167 19.4462 0.0416667 19.0482 0.025 18.5925C0.00833333 18.1365 0.17 17.7387 0.51 17.399L11.8165 6.1925C12.1585 5.8535 12.5362 5.60517 12.9495 5.4475C13.3632 5.2895 13.7812 5.2105 14.2035 5.2105C14.6258 5.2105 15.0498 5.2895 15.4755 5.4475C15.9008 5.60517 16.2725 5.8535 16.5905 6.1925L22.2035 11.8055L33.498 0.510503C33.838 0.170836 34.2383 0.00066862 34.699 1.95312e-06C35.16 -0.000664714 35.5555 0.169336 35.8855 0.510003C36.1998 0.850336 36.3653 1.24834 36.382 1.704C36.3987 2.16 36.237 2.55784 35.897 2.8975L24.5905 14.204C24.2828 14.5447 23.9137 14.7998 23.483 14.9695C23.0523 15.1392 22.6195 15.224 22.1845 15.224Z" fill="white"/>
</svg>
