<svg width="33" height="41" viewBox="0 0 33 41" fill="none" xmlns="http://www.w3.org/2000/svg">
<path d="M14.697 26.2205H17.901C18.1667 26.2205 18.3927 26.1143 18.579 25.902C18.7657 25.6897 18.8257 25.456 18.759 25.201L17.6705 18.935C18.3448 18.6137 18.8802 18.1632 19.2765 17.5835C19.6725 17.0038 19.8705 16.359 19.8705 15.649C19.8705 14.6613 19.522 13.8192 18.825 13.1225C18.1277 12.4258 17.2847 12.0775 16.296 12.0775C15.3073 12.0775 14.4653 12.4258 13.77 13.1225C13.075 13.8192 12.7275 14.6613 12.7275 15.649C12.7275 16.359 12.9255 17.0038 13.3215 17.5835C13.7178 18.1632 14.2532 18.6143 14.9275 18.937L13.851 25.201C13.7763 25.457 13.8322 25.691 14.0185 25.903C14.2045 26.1147 14.4307 26.2205 14.697 26.2205ZM16.299 40.236C16.0977 40.236 15.9092 40.2173 15.7335 40.18C15.5575 40.1427 15.3855 40.0867 15.2175 40.012C10.5442 38.4453 6.83967 35.6008 4.104 31.4785C1.368 27.3558 0 22.8608 0 17.9935V8.2825C0 7.55316 0.203167 6.89383 0.6095 6.3045C1.01583 5.71517 1.55033 5.293 2.213 5.038L15.1055 0.223999C15.5122 0.0746657 15.91 0 16.299 0C16.688 0 17.0858 0.0746657 17.4925 0.223999L30.385 5.038C31.0477 5.293 31.5842 5.71517 31.9945 6.3045C32.4048 6.89383 32.61 7.55316 32.61 8.2825V17.9935C32.61 22.8608 31.24 27.3558 28.5 31.4785C25.7603 35.6008 22.0538 38.4453 17.3805 40.012C17.2125 40.0867 17.0405 40.1427 16.8645 40.18C16.6888 40.2173 16.5003 40.236 16.299 40.236ZM16.299 36.9035C20.0923 35.5968 23.1895 33.2032 25.5905 29.7225C27.9912 26.2415 29.1915 22.3348 29.1915 18.0025V8.2825L16.299 3.4185L3.4065 8.2885V17.997C3.4065 22.333 4.60683 26.2415 7.0075 29.7225C9.4085 33.2032 12.5057 35.5968 16.299 36.9035Z" fill="white"/>
</svg>
