<svg width="37" height="37" viewBox="0 0 37 37" fill="none" xmlns="http://www.w3.org/2000/svg">
<path d="M3.4065 36.61C2.4865 36.61 1.68883 36.2722 1.0135 35.5965C0.337833 34.9212 0 34.1235 0 33.2035V3.4185C0 2.49517 0.337833 1.69466 1.0135 1.017C1.68883 0.338998 2.4865 0 3.4065 0H33.1915C34.1148 0 34.9153 0.338998 35.593 1.017C36.271 1.69466 36.61 2.49517 36.61 3.4185V33.2035C36.61 34.1235 36.271 34.9212 35.593 35.5965C34.9153 36.2722 34.1148 36.61 33.1915 36.61H3.4065ZM16.5955 24.062H3.4065V33.2035H16.5955V24.062ZM20.0025 24.062V33.2035H33.1915V24.062H20.0025ZM16.5955 20.6435V11.5025H3.4065V20.6435H16.5955ZM20.0025 20.6435H33.1915V11.5025H20.0025V20.6435ZM3.4065 8.096H33.1915V3.4185H3.4065V8.096Z" fill="white"/>
</svg>
