<svg width="45" height="25" viewBox="0 0 45 25" fill="none" xmlns="http://www.w3.org/2000/svg">
<path d="M3.757 24.263C2.72267 24.263 1.83783 23.894 1.1025 23.156C0.3675 22.4177 0 21.5295 0 20.4915C0 19.4532 0.3685 18.5638 1.1055 17.8235C1.84217 17.0832 2.72317 16.713 3.7485 16.713C3.94083 16.713 4.12633 16.7253 4.305 16.75C4.48367 16.7747 4.72217 16.8203 5.0205 16.887L14.5185 7.3815C14.4518 7.08817 14.4082 6.85217 14.3875 6.6735C14.3668 6.49484 14.3565 6.311 14.3565 6.122C14.3565 5.082 14.7282 4.19433 15.4715 3.459C16.2148 2.724 17.1055 2.3565 18.1435 2.3565C19.1818 2.3565 20.0685 2.72733 20.8035 3.469C21.5388 4.21067 21.9065 5.10217 21.9065 6.1435C21.9065 6.24983 21.8525 6.653 21.7445 7.353L26.9045 12.5185C27.1905 12.4518 27.4228 12.4082 27.6015 12.3875C27.7802 12.3668 27.9568 12.3565 28.1315 12.3565C28.3062 12.3565 28.4848 12.3668 28.6675 12.3875C28.8502 12.4082 29.0845 12.4518 29.3705 12.5185L36.887 5.014C36.8203 4.728 36.7767 4.49367 36.756 4.311C36.7353 4.12833 36.725 3.94267 36.725 3.754C36.725 2.717 37.0955 1.83217 37.8365 1.0995C38.5775 0.3665 39.4682 0 40.5085 0C41.5492 0 42.4352 0.367834 43.1665 1.1035C43.8975 1.8395 44.263 2.72767 44.263 3.768C44.263 4.80867 43.896 5.69717 43.162 6.4335C42.4277 7.16983 41.5452 7.538 40.5145 7.538C40.3222 7.538 40.1347 7.52767 39.952 7.507C39.7693 7.48633 39.535 7.44267 39.249 7.376L31.7445 14.8925C31.8112 15.1785 31.8548 15.4128 31.8755 15.5955C31.8962 15.7782 31.9065 15.9628 31.9065 16.1495C31.9065 17.1762 31.5368 18.059 30.7975 18.798C30.0582 19.537 29.1693 19.9065 28.131 19.9065C27.093 19.9065 26.2043 19.537 25.465 18.798C24.726 18.059 24.3565 17.1752 24.3565 16.1465C24.3565 15.9538 24.3668 15.7682 24.3875 15.5895C24.4082 15.4108 24.4518 15.1743 24.5185 14.88L19.383 9.7445C19.0887 9.81117 18.8522 9.85483 18.6735 9.8755C18.4948 9.89617 18.31 9.9065 18.119 9.9065C18.013 9.9065 17.61 9.8525 16.91 9.7445L7.376 19.274C7.44267 19.5593 7.48833 19.7893 7.513 19.964C7.53767 20.1387 7.55 20.3222 7.55 20.5145C7.55 21.5398 7.1785 22.4208 6.4355 23.1575C5.69283 23.8945 4.8 24.263 3.757 24.263Z" fill="white"/>
</svg>
