<svg width="45" height="45" viewBox="0 0 45 45" fill="none" xmlns="http://www.w3.org/2000/svg">
<path d="M36.737 15.7665C34.8613 15.7665 33.2155 15.1832 31.7995 14.0165C30.3832 12.8498 29.4758 11.3752 29.0775 9.5925H15.521C15.1957 11.0685 14.4953 12.3443 13.42 13.42C12.3443 14.4953 11.0685 15.1957 9.5925 15.521V29.0775C11.3672 29.4758 12.8398 30.3812 14.0105 31.7935C15.1812 33.2055 15.7665 34.8598 15.7665 36.7565C15.7665 38.9625 14.9953 40.827 13.453 42.35C11.9103 43.8727 10.0562 44.634 7.8905 44.634C5.6845 44.634 3.818 43.8727 2.291 42.35C0.763667 40.827 0 38.956 0 36.737C0 34.8597 0.585333 33.2133 1.756 31.798C2.92667 30.3827 4.40333 29.4758 6.186 29.0775V15.5185C4.40333 15.1202 2.92667 14.2213 1.756 12.822C0.585333 11.4227 0 9.75783 0 7.8275C0 5.6735 0.766167 3.8305 2.2985 2.2985C3.8305 0.766168 5.6735 0 7.8275 0C9.75783 0 11.4227 0.585333 12.822 1.756C14.2213 2.92667 15.1202 4.39934 15.5185 6.174H29.0775C29.4758 4.39934 30.3815 2.92667 31.7945 1.756C33.2075 0.585333 34.8615 0 36.7565 0C38.9618 0 40.828 0.763667 42.355 2.291C43.8823 3.818 44.646 5.67617 44.646 7.8655C44.646 10.0545 43.8823 11.9185 42.355 13.4575C40.828 14.9968 38.9553 15.7665 36.737 15.7665ZM7.8125 41.2275C9.06283 41.2275 10.1333 40.7947 11.024 39.929C11.9147 39.063 12.36 38.0292 12.36 36.8275C12.36 35.5845 11.9152 34.5188 11.0255 33.6305C10.1355 32.7422 9.06583 32.298 7.8165 32.298C6.60483 32.298 5.569 32.742 4.709 33.63C3.84867 34.5183 3.4185 35.586 3.4185 36.833C3.4185 38.0343 3.84933 39.067 4.711 39.931C5.57267 40.7953 6.6065 41.2275 7.8125 41.2275ZM7.8125 12.36C9.06283 12.36 10.1333 11.9162 11.024 11.0285C11.9147 10.1408 12.36 9.07383 12.36 7.8275C12.36 6.6075 11.9152 5.56767 11.0255 4.708C10.1355 3.84834 9.06583 3.4185 7.8165 3.4185C6.60483 3.4185 5.569 3.849 4.709 4.71C3.84867 5.57067 3.4185 6.60967 3.4185 7.827C3.4185 9.072 3.84933 10.1387 4.711 11.027C5.57267 11.9157 6.6065 12.36 7.8125 12.36ZM36.8245 44.658C34.6472 44.658 32.7807 43.8938 31.225 42.3655C29.6693 40.8375 28.8915 38.9945 28.8915 36.8365C28.8915 34.6515 29.6675 32.781 31.2195 31.225C32.7718 29.6693 34.634 28.8915 36.806 28.8915C38.9903 28.8915 40.845 29.6675 42.37 31.2195C43.8953 32.7718 44.658 34.638 44.658 36.818C44.658 38.9983 43.8928 40.85 42.3625 42.373C40.8325 43.8963 38.9865 44.658 36.8245 44.658ZM36.8345 41.2395C38.0492 41.2395 39.089 40.8087 39.954 39.947C40.819 39.0853 41.2515 38.0515 41.2515 36.8455C41.2515 35.5952 40.8185 34.5247 39.9525 33.634C39.0862 32.7433 38.045 32.298 36.829 32.298C35.5853 32.298 34.5213 32.7428 33.637 33.6325C32.7523 34.5225 32.31 35.5922 32.31 36.8415C32.31 38.0532 32.752 39.089 33.636 39.949C34.5197 40.8093 35.5858 41.2395 36.8345 41.2395ZM36.818 12.36C38.0303 12.36 39.0683 11.9162 39.932 11.0285C40.7957 10.1408 41.2275 9.07383 41.2275 7.8275C41.2275 6.6075 40.7953 5.56767 39.931 4.708C39.0667 3.84834 38.0275 3.4185 36.8135 3.4185C35.5722 3.4185 34.5073 3.849 33.619 4.71C32.7303 5.57067 32.286 6.60967 32.286 7.827C32.286 9.072 32.7298 10.1387 33.6175 11.027C34.5048 11.9157 35.5717 12.36 36.818 12.36Z" fill="white"/>
</svg>
